# xmcd
#
# Track frame offsets:
# 150
# 9771
# 22020
# 38729
# 50901
# 65763
# 79448
# 89862
# 100057
# 112687
# 120768
#
# Disc length: 1747 seconds
#
#
# Revision: 0
# Processed by: cddbd v1.5.2PL0 Copyright (c) Steve Scherf et al.
# Submitted via: FreeRIP 2.10 
#
DISCID=8706d10b
DTITLE=Earl Brown - Gospel Favorites
DYEAR=2001
DGENRE=Gospel
TTITLE0=If God be for Us
TTITLE1=Rank Stranger
TTITLE2=Gone Home
TTITLE3=Old Country Church
TTITLE4=How Great Thou Art
TTITLE5=Power in Your Knees
TTITLE6=Palms of Victory
TTITLE7=Crying Holy
TTITLE8=Empty Mansion
TTITLE9=This Little Light of Mine
TTITLE10=Make Him a Soldier
EXTD=
EXTT0=
EXTT1=
EXTT2=
EXTT3=
EXTT4=
EXTT5=
EXTT6=
EXTT7=
EXTT8=
EXTT9=
EXTT10=
PLAYORDER=
